<svg width="24" height="24" viewBox="0 0 24 24" fill="none" xmlns="http://www.w3.org/2000/svg">
<path d="M10.5563 14.8528C11.6008 14.2608 12.42 13.3396 12.8861 12.2331C13.3522 11.1266 13.4389 9.89688 13.1328 8.73589C12.8266 7.5749 12.1448 6.54789 11.1937 5.81507C10.2426 5.08225 9.07569 4.68484 7.87501 4.68484C6.67434 4.68484 5.50742 5.08225 4.55631 5.81507C3.6052 6.54789 2.92339 7.5749 2.61724 8.73589C2.31109 9.89688 2.39783 11.1266 2.86391 12.2331C3.32999 13.3396 4.14921 14.2608 5.19376 14.8528C3.2578 15.47 1.59521 16.7384 0.488452 18.4425C0.406898 18.5674 0.378317 18.7197 0.408996 18.8657C0.439676 19.0117 0.527103 19.1395 0.652045 19.2211C0.776987 19.3026 0.929209 19.3312 1.07522 19.3005C1.22124 19.2699 1.34909 19.1824 1.43064 19.0575C2.12871 17.9842 3.0838 17.1022 4.2092 16.4917C5.3346 15.8812 6.59467 15.5614 7.87501 15.5614C9.15536 15.5614 10.4154 15.8812 11.5408 16.4917C12.6662 17.1022 13.6213 17.9842 14.3194 19.0575C14.4063 19.1688 14.5318 19.2434 14.6711 19.2664C14.8104 19.2895 14.9533 19.2593 15.0714 19.1818C15.1895 19.1043 15.2741 18.9853 15.3085 18.8484C15.3428 18.7114 15.3244 18.5665 15.2569 18.4425C14.1513 16.7393 12.4905 15.471 10.5563 14.8528ZM3.56251 10.125C3.56251 9.27207 3.81544 8.43829 4.2893 7.7291C4.76316 7.01991 5.43669 6.46717 6.22469 6.14077C7.0127 5.81436 7.8798 5.72896 8.71634 5.89536C9.55288 6.06176 10.3213 6.47249 10.9244 7.0756C11.5275 7.67871 11.9383 8.44713 12.1047 9.28367C12.271 10.1202 12.1856 10.9873 11.8592 11.7753C11.5328 12.5633 10.9801 13.2368 10.2709 13.7107C9.56172 14.1846 8.72795 14.4375 7.87501 14.4375C6.73173 14.436 5.63569 13.9812 4.82726 13.1728C4.01883 12.3643 3.564 11.2683 3.56251 10.125ZM23.3438 19.2187C23.2189 19.3002 23.0668 19.3288 22.9209 19.2982C22.775 19.2676 22.6473 19.1804 22.5656 19.0556C21.8688 17.9822 20.9144 17.1003 19.7895 16.4901C18.6645 15.88 17.4048 15.5611 16.125 15.5625C15.9758 15.5625 15.8328 15.5032 15.7273 15.3977C15.6218 15.2923 15.5625 15.1492 15.5625 15C15.5625 14.8508 15.6218 14.7077 15.7273 14.6023C15.8328 14.4968 15.9758 14.4375 16.125 14.4375C16.7601 14.4369 17.3871 14.296 17.9614 14.0249C18.5357 13.7538 19.043 13.3593 19.4472 12.8694C19.8513 12.3796 20.1423 11.8065 20.2993 11.1912C20.4563 10.5758 20.4755 9.93343 20.3554 9.30983C20.2354 8.68624 19.9791 8.09684 19.6049 7.58377C19.2307 7.07069 18.7478 6.64659 18.1907 6.34177C17.6335 6.03695 17.016 5.85893 16.3821 5.82043C15.7482 5.78193 15.1137 5.8839 14.5238 6.11906C14.4551 6.14719 14.3815 6.16144 14.3072 6.161C14.233 6.16055 14.1596 6.14541 14.0912 6.11646C14.0229 6.0875 13.9609 6.0453 13.9089 5.99229C13.857 5.93927 13.816 5.8765 13.7884 5.80758C13.7608 5.73866 13.7471 5.66496 13.7482 5.59072C13.7492 5.51649 13.7649 5.4432 13.7944 5.37507C13.8239 5.30694 13.8666 5.24532 13.92 5.19376C13.9734 5.14221 14.0365 5.10174 14.1056 5.07469C15.3852 4.56457 16.8106 4.55907 18.094 5.05931C19.3774 5.55955 20.4232 6.52824 21.02 7.7697C21.6168 9.01116 21.7202 10.4328 21.3093 11.7476C20.8984 13.0623 20.0038 14.1721 18.8063 14.8528C20.7422 15.47 22.4048 16.7384 23.5116 18.4425C23.592 18.5678 23.6195 18.7198 23.5881 18.8653C23.5566 19.0108 23.4688 19.1379 23.3438 19.2187Z" fill="#0F3B59"/>
</svg>
