<svg width="16" height="16" viewBox="0 0 16 16" fill="none" xmlns="http://www.w3.org/2000/svg">
<path d="M4.00016 5.33203C3.87636 5.33203 3.75499 5.36651 3.64968 5.4316C3.54436 5.49669 3.45925 5.58982 3.40388 5.70056C3.34851 5.81129 3.32507 5.93526 3.33619 6.05857C3.34731 6.18188 3.39254 6.29965 3.46683 6.3987L7.46683 11.732C7.52893 11.8148 7.60945 11.882 7.70202 11.9283C7.79459 11.9746 7.89667 11.9987 8.00016 11.9987C8.10366 11.9987 8.20574 11.9746 8.29831 11.9283C8.39088 11.882 8.4714 11.8148 8.5335 11.732L12.5335 6.3987C12.6078 6.29965 12.653 6.18188 12.6641 6.05857C12.6753 5.93526 12.6518 5.81129 12.5964 5.70056C12.5411 5.58982 12.456 5.49669 12.3507 5.4316C12.2453 5.36651 12.124 5.33203 12.0002 5.33203H4.00016Z" fill="#0F3B59"/>
</svg>
